<?xml version="1.0" encoding="utf-8"?>
<!-- Generator: Adobe Illustrator 19.2.0, SVG Export Plug-In . SVG Version: 6.00 Build 0)  -->
<svg version="1.1" id="Layer_1" xmlns="http://www.w3.org/2000/svg" xmlns:xlink="http://www.w3.org/1999/xlink" x="0px" y="0px"
	 viewBox="0 0 345.9 345.9" style="enable-background:new 0 0 345.9 345.9;" xml:space="preserve">
<style type="text/css">
	.st0{fill:#115C63;}
	.st1{fill:#093D44;}
</style>
<path class="st0" d="M336.4,43.5c-11.3-11.3-22.6-22.7-34.1-33.8c-12.5-12.1-31.3-12-43.5,0.2C188.5,80.1,118.3,150.3,48.1,220.6
	c-2.9,2.9-5.5,6.3-7.1,9.9c-2.3,5.1-3.8,10.6-5.4,16c-6.1,21.3-12.3,42.5-18.2,63.9c-3.1,11.2,7,21.2,18.2,18.1
	c22.7-6.3,45.2-13.2,68-19.3c10.1-2.8,18.3-7.7,25.6-15.1c68.6-68.8,137.3-137.4,205.9-206c0.6-0.7,1.3-1.3,1.9-2
	c5.6-5.8,8.3-12.9,8.4-20.4C345.5,56.8,342.6,49.7,336.4,43.5z M283.9,47.2c-0.6,0.8-1.3,1.5-2,2.2C257.3,74,232.6,98.7,208,123.3
	c-40.8,40.8-81.6,81.5-122.4,122.3c-3.2,3.2-3.3,4.2-0.1,7.6c7.4,8,15.4,15.2,24.7,20.9c0.7,0.4,1.3,0.9,2,1.4
	c-3.7,4.5-7.8,7.9-13.5,9.4c-10.2,2.5-20.2,5.6-30.2,8.6c-1.4,0.4-2.2,0.1-3.2-0.9c-3.8-3.9-7.8-7.7-11.6-11.7
	c-0.7-0.7-1.2-2.3-0.9-3.2c3.1-11.5,6.4-23,9.7-34.5c0.3-1.2,1.1-2.2,1.7-3.3c0.3-0.5,0.8-0.9,1.2-1.3
	C133.1,170.8,200.9,103,268.5,35.2c4.5-4.5,9.8-5.1,14.1-1.6C286.7,37,287.3,43.1,283.9,47.2z"/>
<path class="st1" d="M130.9,84.2c-4.3,4.3-8.2,8.3-12.2,12.3c-3,3-6.6,3.3-9.3,0.8c-2.7-2.5-2.7-6.5,0.2-9.6
	c3.3-3.5,6.8-6.9,10.2-10.3c0.6-0.6,1.1-1.2,1.6-1.7c-3-3-6-5.9-9.1-9c-3.9,4-8,8.3-12.3,12.4c-2.4,2.3-5.7,2.4-8.2,0.5
	c-2.3-1.8-3.2-5.2-1.8-7.9c0.6-1.2,1.5-2.2,2.5-3.1c3.6-3.7,7.3-7.3,10.8-10.8c-3.1-3-6-5.9-9.1-9c-3.6,3.6-7.5,7.5-11.4,11.4
	c-3.2,3.2-6.7,3.5-9.5,0.9s-2.7-6.6,0.4-9.8c3.9-4,7.9-7.9,11.7-11.7c-3.1-3.1-6.1-6-9.1-8.9c-15,15.2-30.3,30.6-46,46.5
	c3.7,3.5,7.6,7.2,11.4,11c16.1,16,32.1,32,48.1,48.1c3,3,3,4,0,7c-3.8,3.8-7.5,7.6-11.3,11.3c-2.2,2.1-3.6,2.2-5.7,0
	C49.9,131.7,27,108.8,4.1,85.9C-1.3,80.4-1.4,73.1,4,67.6C25.2,46.4,46.4,25.2,67.7,4c5.3-5.3,12.7-5.3,18,0
	c23,22.9,46,45.9,68.9,68.9c2,2,2,3.6,0.1,5.6c-4,4.1-8.1,8.1-12.2,12.2c-1.9,1.9-3.4,2-5.4,0.1C135.1,88.7,133.1,86.5,130.9,84.2z"
	/>
<path class="st1" d="M268.6,315.4c15.9-15.7,31.3-31,46.7-46.2c-2.9-2.9-5.8-5.8-8.9-8.9c-2.3,2.3-4.7,4.7-7.1,7.1
	c-1.7,1.7-3.4,3.4-5.1,5.1c-2.7,2.6-6.5,2.7-9,0.4c-2.4-2.3-2.7-6.3-0.2-9c3.2-3.5,6.6-6.8,10-10.1c0.8-0.8,1.8-1.5,2.6-2.2
	c-3.2-3.2-6.1-6.1-9.2-9.2c-1.6,1.6-3.3,3.2-4.9,4.9c-2.4,2.4-4.7,4.7-7.1,7.1c-2.9,2.8-6.8,3-9.3,0.4c-2.5-2.5-2.4-6.5,0.4-9.4
	c4-4.1,8-8,11.8-11.8c-3-3-6-6-9.1-9.1c-3.7,3.7-7.5,7.7-11.5,11.5c-1.1,1.1-2.7,2.1-4.2,2.4c-2.5,0.6-4.8-0.3-6.3-2.6
	c-1.5-2.4-1.6-5,0.2-7.2c1.7-2.1,3.7-4,5.7-6c2.4-2.4,4.9-4.8,7.6-7.4c-2.3-2.2-4.4-4.1-6.5-6.2c-2-2-2-3.5,0-5.6
	c3.9-3.9,7.8-7.8,11.7-11.7c2.7-2.7,3.8-2.7,6.6,0.1c4.2,4.2,8.5,8.5,12.7,12.7c18.2,18.1,36.3,36.3,54.5,54.4
	c6.9,6.9,6.9,13.6-0.1,20.6c-20.4,20.4-40.8,40.8-61.2,61.2c-6.9,6.9-13.7,6.9-20.6,0c-22.3-22.3-44.7-44.7-67-67c-3-3-3-4,0-7
	c3.7-3.7,7.4-7.4,11.1-11.1c2.5-2.5,3.7-2.5,6.2,0.1c11.8,11.8,23.6,23.5,35.3,35.4C252.7,299.2,260.7,307.4,268.6,315.4z"/>
</svg>
