<?xml version="1.0" encoding="utf-8"?>
<!-- Generator: Adobe Illustrator 27.2.0, SVG Export Plug-In . SVG Version: 6.00 Build 0)  -->
<svg version="1.1" id="Layer_1" xmlns="http://www.w3.org/2000/svg" xmlns:xlink="http://www.w3.org/1999/xlink" x="0px" y="0px"
	 viewBox="0 0 254.5 157" style="enable-background:new 0 0 254.5 157;" xml:space="preserve">
<style type="text/css">
	.st0{fill:#E2E2E2;}
</style>
<g>
	<path class="st0" d="M72,59.9V45.3h-9.2v63H72V88.8h-3.6V77.9h14.5v34.2c0,3.9-3.3,7.1-7.3,7.1H59.2c-3.9,0-7.3-3.3-7.3-7.1V41.7
		c0-3.9,3.4-7.3,7.3-7.3h16.5c4.1,0,7.3,3.4,7.3,7.3v18.2H72z"/>
	<path class="st0" d="M92.6,34.4H115c4.1,0,7.3,3.4,7.3,7.3V69c0,3-1.6,5.3-3.8,5.9c3.3,0.7,5.1,4.1,5.1,7.1s0,27.5,0,30
		c0,3.9-3.3,7.1-7.3,7.1H92.6V34.4z M103.5,70.1h7.9V45.3h-7.9V70.1z M112.7,108.3V81h-9.2v27.4L112.7,108.3L112.7,108.3z"/>
	<path class="st0" d="M132.8,34.4h23.7c4.1,0,7.3,3.4,7.3,7.3v31.9c0,3.9-3.3,7.1-7.3,7.1h-12.8v38.5h-10.9V80.7V34.4z M152.9,45.3
		h-9.2v24.5h9.2V45.3z"/>
	<path class="st0" d="M182,93.7v14.7h9.2V81h-12.8c-4.2,0-7.3-3.5-7.3-7.1V41.7c0-4.2,2.9-7.3,7.3-7.3h16.5c4.1,0,7.3,3,7.3,7.1
		v17.8h-10.9v-14H182V70h12.8c4.1,0,7.3,3.4,7.3,7.3v34.8c0,3.9-3.3,7.1-7.3,7.1h-16.5c-3.9,0-7.3-3.3-7.3-7.1V93.7H182z"/>
</g>
<path class="st0" d="M3.8,2.9c82.8,0,165.6,0,248.5,0c-1.3,5.9-2.5,11.7-3.8,17.6c-2.1,9.5-4.2,19-6.3,28.6c-2,8.9-4,17.8-6,26.8
	c-1.4,6.2-2.7,12.5-4.1,18.7c-1.1,4.9-2.3,9.8-3.4,14.7c-1.8,8.1-3.5,16.2-5.3,24.3c-1.5,6.6-3.1,13.1-4.4,19.7
	c-0.3,1.4-0.8,1.7-2.1,1.7c-59.5,0-119,0-178.5,0c-0.5,0-1,0-1.7,0c-0.1-0.5-0.3-1-0.4-1.5c-1.1-5.2-2.2-10.4-3.3-15.5
	c-1.1-4.9-2.2-9.9-3.3-14.8c-1.4-6.6-2.8-13.2-4.3-19.8C24.2,98,23,92.6,21.9,87.2c-1.4-6.6-2.8-13.2-4.3-19.8
	c-1.1-4.9-2.2-9.8-3.2-14.7c-1.3-5.8-2.5-11.5-3.7-17.3c-1.1-5-2.1-10-3.2-15C6.3,14.5,5,8.7,3.8,2.9z M48.2,140.5
	c0.7,0,1.2,0,1.7,0c51.9,0,103.8,0,155.7,0c1.3,0,2.1-0.2,2-1.7c0-0.6,0.3-1.2,0.4-1.8c1-4.5,2-9,3-13.5c1.5-7,3-13.9,4.5-20.9
	c1.1-4.9,2.2-9.9,3.2-14.8c1.5-6.9,3-13.8,4.5-20.8c1.1-4.9,2.2-9.9,3.3-14.8c1.3-6.1,2.7-12.3,4-18.4c1.2-5.5,2.3-10.9,3.5-16.5
	c-71,0-142,0-213.1,0C30.1,58.5,39.1,99.4,48.2,140.5z"/>
</svg>
