<?xml version="1.0" encoding="utf-8"?>
<!-- Generator: Adobe Illustrator 19.2.0, SVG Export Plug-In . SVG Version: 6.00 Build 0)  -->
<svg version="1.1" id="Layer_1" xmlns="http://www.w3.org/2000/svg" xmlns:xlink="http://www.w3.org/1999/xlink" x="0px" y="0px"
	 viewBox="0 0 345.9 345.9" style="enable-background:new 0 0 345.9 345.9;" xml:space="preserve">
<style type="text/css">
	.st0{fill:#093D44;}
</style>
<path class="st0" d="M39.2,185.4c0.1-28.9,9.9-52.6,26.9-73.6c10.6-13.1,23.7-23.6,37-33.5c44.3-33.1,93.6-55.7,147.1-69.2
	c3.9-1,7.9-1.8,11.9-2.6c6.3-1.2,12.5,1.6,15.8,7.1c3.2,5.3,2.8,12.2-1.5,16.9c-6.8,7.6-11.8,16.1-14.4,26.1
	c-3,11.5-3.1,23.1-1.8,34.8c1.8,16.8,7.2,32.7,11.3,49c5.5,21.8,8,43.9,5.5,66.4c-3.7,33.9-19.8,60.5-48.1,79.6
	c-14.5,9.8-29.9,17.6-47,21.7c-5.2,1.2-6.5,5.2-3.1,9.3c3.1,3.8,5.1,7.8,3.8,12.9c-1.9,7.8-11.8,14.4-18.8,12.1
	c-2.5-0.8-4.9-2.6-6.7-4.6c-6.8-7.8-12.5-16.4-17.2-25.6c-1.2-2.4-3-3.8-5.6-4.5c-21.1-5.2-39-16.2-54.7-30.9
	c-22.4-21.1-34.4-47.4-39.3-77.4c-0.3-1.8-0.5-3.6-0.6-5.4C39.5,190.5,39.3,187.1,39.2,185.4z M123.3,242.9c0.4-7,0.6-13.3,1.3-19.6
	c2.2-20.9,7.4-41.1,14.9-60.8c5.9-15.6,13-30.5,21.4-44.9c4.5-7.7,12.1-9.4,19.4-4.4c0.8,0.5,1.6,1.1,2.4,1.6
	c6.3,4.4,7.5,11,3.9,17.8c-4.9,9.2-9.9,18.3-14,27.8c-12,27.3-19.8,55.7-19.1,85.9c0.3,11.2,1.9,22.2,5.1,33
	c0.4,1.4,0.9,2.1,2.5,1.8c2.6-0.3,5.2-0.4,7.7-0.8c16.9-2.5,31.4-10.1,45.2-19.8c20.7-14.4,31.4-34.4,33.7-59.2
	c1.6-17.2-0.4-34.1-4.2-50.7c-2.3-10.2-5.6-20.1-8.1-30.3c-5.3-21.7-7.7-43.6-3.3-65.8c1.1-5.4-2.4-8.4-7.6-6.6
	c-38.2,13.4-73.9,31.6-106.1,56.3c-11.1,8.5-22.1,17.3-30.7,28.5c-12.7,16.4-20,34.8-18.6,55.6c2.3,34.3,18.6,60.8,47.4,79.6
	c1.9,1.2,3.8,1.6,5.8,0.4c2.2-1.3,2.8-3.4,2.6-5.8C124.2,255.7,123.8,248.9,123.3,242.9z"/>
</svg>
