<?xml version="1.0" encoding="utf-8"?>
<!-- Generator: Adobe Illustrator 19.2.0, SVG Export Plug-In . SVG Version: 6.00 Build 0)  -->
<svg version="1.1" id="Layer_1" xmlns="http://www.w3.org/2000/svg" xmlns:xlink="http://www.w3.org/1999/xlink" x="0px" y="0px"
	 viewBox="0 0 345.9 345.9" style="enable-background:new 0 0 345.9 345.9;" xml:space="preserve">
<style type="text/css">
	.st0{fill:#093D44;}
	.st1{fill:#125D63;}
</style>
<path class="st0" d="M307.6,79.1c0,62.9,0,125.6,0,188.5c0.8-0.5,1.5-1,2.2-1.4c2.9-1.8,6.1-1.3,8.1,1.1c2.1,2.5,2,5.8-0.4,8.2
	c-2.7,2.7-5.6,5.1-8.2,7.8c-0.9,1-1.6,2.5-1.7,3.8c-0.2,6.7,0.2,13.4-2.2,19.9c-5.1,13.9-18.5,23.9-33.2,24.3
	c-4.1,0.1-8.1-0.1-12.2,0.1c-1.5,0.1-3.3,0.8-4.5,1.8c-3.9,3.3-7.4,7-11.2,10.4c-4.2,3.8-9.8,2.5-10.7-2.8c-0.3-1.8,0.8-3.9,1.7-5.6
	c0.7-1.3,2.2-2.2,3.8-3.7c-40.2,0-79.8,0-119.9,0c0.6,0.7,1.1,1.3,1.6,1.9c2.5,2.7,2.6,6.1,0.1,8.6c-2.2,2.4-5.7,2.6-8.4,0.3
	c-3.4-3-6.6-6.2-10.1-9.1c-1.2-1-2.9-1.7-4.4-1.8c-6.7-0.4-13.5,0.2-20.1-0.8c-15.5-2.1-28.4-15.8-30-31.2
	c-0.5-5.2-0.3-10.4-0.6-15.6c-0.1-1.2-0.8-2.6-1.6-3.5c-2-2.2-4.2-4.1-6.4-6.1c-2.9-2.7-3.3-5.8-1.4-8.6c1.9-2.7,4.7-3.2,8.3-1.5
	c0.2,0.1,0.5,0.2,1,0.3c0-61.7,0-123.2,0-185c-0.6,0.3-1.1,0.5-1.6,0.9c-3.1,1.9-6.4,1.5-8.4-1c-2.1-2.6-1.7-6.2,0.9-8.7
	c2.5-2.4,5.2-4.7,7.6-7.2c0.9-0.9,1.5-2.3,1.6-3.6c0.5-5.7,0.2-11.6,1.3-17.2c3.2-15.9,18-28,34.2-28.4c4.5-0.1,9.1,0.1,13.6-0.1
	c1.4-0.1,2.9-0.7,4-1.6c3.9-3.3,7.4-7,11.3-10.3c2.9-2.5,6.4-2,8.6,0.6c2.2,2.6,2,6-0.7,8.6c-0.7,0.7-1.6,1.2-2.4,1.9
	c0.1,0.2,0.3,0.4,0.4,0.6c40,0,79.9,0,120.4,0c-1.3-1.3-2.4-2.4-3.5-3.5c-2.7-2.7-2.9-6.4-0.5-8.8c2.4-2.5,6.1-2.5,8.9,0
	c3.9,3.5,7.7,7.3,11.7,10.7c1.2,1,2.9,1.6,4.5,1.7c7,0.5,14.1,0,20.9,1.4c15,3,27.2,18.6,27.5,33.8c0,2.5,0.3,5-0.1,7.4
	c-0.5,3.8,0.9,6.5,3.9,8.7c1.7,1.2,3.1,2.7,4.6,4.2c2.7,2.6,3.2,5.7,1.3,8.4c-2,2.8-5,3.3-8.5,1.4C308.5,79.5,308.3,79.4,307.6,79.1
	z M295.3,173.4c0-34.3,0-68.5,0-102.8c0-2.4-0.6-4-2.4-5.7c-13.3-12.2-26.4-24.6-39.8-36.8c-1.1-1-3-1.7-4.5-1.7
	c-47.4-0.1-94.8-0.1-142.2,0c-1.5,0-3.3,0.7-4.4,1.7C88.6,40.6,75.3,53.1,61.9,65.5c-1.5,1.4-2.1,2.8-2.1,4.9
	c0,67.8,0.1,135.5,0,203.3c0,2.2,0.7,3.7,2.2,5.1c13.8,12.8,27.6,25.6,41.3,38.5c1.6,1.5,3.2,2.2,5.5,2.2c46.7-0.1,93.3-0.1,140,0
	c2.6,0,4.4-0.7,6.3-2.4c12.6-11.9,25.3-23.6,38-35.4c1.7-1.5,2.3-3.1,2.3-5.4C295.3,242,295.3,207.7,295.3,173.4z M87.5,319.2
	c-9.4-8.8-18.3-17-27.5-25.6C59.2,308.2,71.7,319.9,87.5,319.2z M60.2,50.3c8.5-7.9,16.8-15.6,25.5-23.7
	C69.3,26.4,59.4,40.4,60.2,50.3z M294.9,50.2c0.5-12.5-12-24-25.1-23.3C278.2,34.6,286.4,42.2,294.9,50.2z M294.8,296.7
	c-8,7.4-15.8,14.7-23.9,22.2C283.6,319.6,295.1,307.1,294.8,296.7z"/>
<path class="st1" d="M174,136.8c4.3-8.6,8.3-16.6,12.3-24.6c2.8-5.6,5.6-11.1,8.4-16.7c1.3-2.5,2.9-4.4,6-4.4c3.1,0,4.8,1.9,6,4.4
	c8.2,16.4,16.4,32.7,24.6,49.1c5.8,11.5,11.5,22.9,17.3,34.4c0.3,0.6,0.6,1.2,0.9,1.8c2.1,4.9-0.6,9.1-5.9,9.2
	c-3.8,0.1-7.6,0-11.4,0c-35.4,0-70.8,0.1-106.1,0.1c-0.9,0-1.9,0-2.8,0c-5.2-0.2-8-4.5-5.6-9.3c5.3-10.7,10.7-21.4,16.1-32.1
	c5.7-11.4,11.4-22.8,17.1-34.2c1.3-2.6,3.1-4.3,6.1-4.3c2.9,0.1,4.7,1.8,5.8,4.3c0.3,0.6,0.6,1.2,0.9,1.8
	C167,122.9,170.3,129.5,174,136.8z M200.7,110.8c-11.3,22.5-22.3,44.5-33.4,66.6c22.4,0,44.4,0,66.8,0
	C223,155.2,212,133.3,200.7,110.8z M132.8,177.7c6.9,0,13.2,0.1,19.5-0.1c0.7,0,1.6-1.1,2-1.9c3.3-6.5,6.2-13.1,9.9-19.4
	c2.5-4.2,2.9-7.8-0.1-11.8c-1.1-1.5-1.7-3.3-2.6-5c-1.5-3.1-3.1-6.1-4.8-9.6C148.7,146,140.9,161.6,132.8,177.7z"/>
<path class="st1" d="M179.8,224.6c-23.6,0-47.3,0-70.9,0c-4.8,0-7.5-2.6-7.1-6.8c0.2-2.8,2-4.7,4.7-5.2c1.2-0.2,2.4-0.2,3.7-0.2
	c46.4,0,92.9,0,139.3,0c1,0,2.1,0,3.1,0.1c3.4,0.4,5.4,2.5,5.5,5.7c0.1,3.2-2.1,5.8-5.4,6.3c-0.9,0.1-1.9,0.1-2.8,0.1
	C226.6,224.6,203.2,224.6,179.8,224.6z"/>
<path class="st1" d="M181.7,249.7c-11.2,0-22.3,0-33.5,0c-4.2,0-6.8-2.2-6.9-5.8c-0.1-3.7,2.6-6.2,6.9-6.2c22.4,0,44.8,0,67.3,0
	c3.9,0,6.8,2.6,6.8,6.1c0,3.5-2.8,6-6.8,6C204.2,249.7,193,249.7,181.7,249.7z"/>
</svg>
