<?xml version="1.0" encoding="utf-8"?>
<!-- Generator: Adobe Illustrator 19.2.0, SVG Export Plug-In . SVG Version: 6.00 Build 0)  -->
<svg version="1.1" id="Layer_1" xmlns="http://www.w3.org/2000/svg" xmlns:xlink="http://www.w3.org/1999/xlink" x="0px" y="0px"
	 viewBox="0 0 345.9 345.9" style="enable-background:new 0 0 345.9 345.9;" xml:space="preserve">
<style type="text/css">
	.st0{fill:#093D44;}
	.st1{fill:#125D63;}
</style>
<path class="st0" d="M309.5,342.8c-5-0.5-10.7-1.1-16.3-1.6c-9.8-0.9-19.5-1.9-29.3-2.6c-11.7-1-23.5-1.9-35.2-2.6
	c-10.4-0.7-20.8-1.3-31.3-1.6c-12.9-0.4-25.8-1-38.6-0.8c-16.9,0.3-33.8,1.1-50.7,2.2c-16.2,1.1-32.4,2.8-48.6,4.3
	c-7,0.7-13.9,2-20.9,2.6c-8,0.7-15.1-1.8-21.3-7C10,329.6,6,321.8,5.9,312.2c0-1.4,0.3-2.8,0.7-4.1c5.3-16.6,8.6-33.6,11.5-50.7
	c2.9-17.6,4.9-35.2,5.4-53c0.5-16.7,0.3-33.5-0.3-50.3c-0.4-12.3-1.4-24.6-3-36.8c-2.1-16.4-4.9-32.8-7.8-49.1
	c-1.6-9.1-4.3-17.9-6.2-27C4.6,33.6,7.7,22.3,17.7,16c6.5-4.1,13.7-5.9,21.1-7.4c12.9-2.6,25.8-5,38.8-7.5C81.7,0.4,86.1,3,87,7.2
	c0.6,2.9,2.3,4.6,4.5,5.7c5.8,2.7,11.5,5.6,17.6,7.5c22.4,6.8,45.4,8.5,68.7,7.3c14.3-0.7,28.5-2.6,42.1-7.3
	c5.2-1.8,10.1-4.4,14.9-7c2.2-1.2,3.7-3,4.3-5.8c1.1-5.1,4.7-7.2,9.9-6.2c15.5,3,31,5.9,46.4,9.1c8.8,1.8,16.4,5.9,21,14.1
	c1.5,2.7,2.2,5.8,3.1,8.9c0.4,1.4,0.7,2.4,2.4,3.2c10.8,4.9,16.9,13.3,18.6,25c0.8,5.3-1.4,10.1-2.1,15.1
	c-1.5,10.8-3.3,21.5-4.6,32.3c-2.8,23.2-3.8,46.5-3.3,69.8c0.4,19,1.1,38.1,2.4,57.1c1.1,17.4,3.1,34.8,4.8,52.2
	c0.7,6.6,1.8,13.1,2.7,19.7c1.2,8.3-0.8,15.8-5.9,22.5C328.2,338.2,320.2,342.5,309.5,342.8z M58.1,18.9c-6.7,1.5-13.3,2.7-19.8,4.3
	c-4.2,1.1-8.5,2.5-12.4,4.4c-4.5,2.1-6.7,7.2-5.6,11.4c7.5,28.7,12.2,57.9,15.2,87.4c2,20,2.8,40,2.6,60.1
	c-0.3,23.8-2.1,47.3-5.8,70.8c-2.9,18.2-6.4,36.2-11.9,53.8c-0.2,0.7-0.4,1.4-0.4,2.1c0.5,9.1,10,16.7,19,15.2
	c4.2-0.7,8.4-1.3,12.7-1.7c17.1-1.7,34.3-3.7,51.4-4.8c19.9-1.3,39.9-2,59.9-2.5c9.8-0.3,19.6,0.2,29.4,0.6
	c14.2,0.6,28.4,1.4,42.6,2.3c11,0.7,21.9,1.6,32.9,2.5c11.3,1,22.5,2.1,33.8,3.1c4.4,0.4,8.9,1.4,13.4-0.1
	c6.9-2.4,12.4-10.5,11.4-17.1c-1.2-7.6-2.3-15.3-3.1-23c-1.6-15.6-3.4-31.3-4.3-47c-1.3-21.8-2.4-43.7-2.7-65.6
	c-0.4-23.2,0.7-46.5,3.7-69.6c1.7-13.1,4.1-26.2,6.1-39.3c0.3-1.7,0.3-3.6-0.1-5.3c-1.1-4.6-3.8-8.1-8.2-10.7
	c-1.7,10.3-3.6,20.1-4.9,30c-2.3,17.5-4.6,34.9-6.3,52.4c-1.2,12.8-1.9,25.7-2.2,38.6c-0.5,17.6,0.6,35.1,2.7,52.5
	c1.5,13.3,3,26.5,5.1,39.7c2.2,14.3,5.1,28.4,7.7,42.6c0.7,4.1-1.7,7.7-5.6,8.6c-3.5,0.8-7.2-1.7-8.1-5.6c-1-4.5-2-8.9-2.8-13.4
	c-2.5-14.9-5.1-29.7-7.2-44.6c-1.9-13.9-3.6-27.9-4.5-41.9c-0.9-14.7-1.2-29.4-1.1-44.1c0.1-11.7,0.9-23.4,2-35
	c1.2-13,2.8-25.9,4.6-38.8c1.8-12.9,3.9-25.7,6-38.6c0.7-4.4,1.6-8.7,2.4-13c1.1-6-2.3-12-9.2-13.9c-9.5-2.6-19.2-4.4-28.9-6.5
	c-0.3,1-0.6,1.7-0.7,2.4c-1.8,8.3-4.7,16.2-8.6,23.7c-8.1,15.7-19.6,28-34.9,36.8c-13.8,7.9-28.8,11.9-44.5,13.5
	c-16.8,1.7-33.5,1-49.9-3c-17.5-4.3-33-12.2-45.6-25.1C73.3,57.1,66.1,44.9,61.7,31.2C60.4,27.2,59.4,23.2,58.1,18.9z M96.9,31.6
	c0,0.1,0,0.2,0.1,0.4c9.3,14.3,21.9,24.3,38.3,29.3c12,3.7,24.3,4.5,36.8,3.4c14.8-1.2,28.4-5.6,40.3-14.7
	c6.2-4.7,11.4-10.4,15.7-17C184.2,46,140.5,45,96.9,31.6z M69.3,17c0.1,0.6,0.1,1.1,0.2,1.5c1.7,7.6,4.3,15,7.9,22
	c10,19.2,25.4,31.9,45.7,38.9c10.1,3.5,20.5,5.2,31.1,5.8c17.1,1,33.9-0.5,50.2-6.3c11.2-4,21.1-10,29.6-18.3
	c8.7-8.6,15-18.9,19.1-30.4c1.5-4.1,2.5-8.4,3.8-12.8c-2-0.4-3.5-0.7-5.1-1c-0.2,0.5-0.4,1-0.6,1.4c-3,6.6-5.5,13.5-9.2,19.7
	c-12,20.1-29.6,32.9-52.3,38.6c-16.4,4.1-32.8,4.3-49.3,1c-21.4-4.3-38.8-15.1-51.9-32.6c-5.9-8-10.4-16.7-13.6-26.1
	c-0.3-0.8-1.1-1.8-1.8-1.9C71.9,16.2,70.6,16.7,69.3,17z"/>
<path class="st1" d="M86.6,182.2c0-11.8,0-23.6,0-35.4c0-2.6,0.3-5.1,2.9-6.5c2.3-1.3,4.4-0.5,6.5,0.7c8.2,4.8,16.4,9.5,24.6,14.3
	c1.4,0.8,2.4,0.8,3.8,0.1c15-7.8,31-10.3,47.8-8.7c10.7,1,20.7,4.1,30.2,9c0.7,0.4,2,0.3,2.7-0.1c8.3-4.7,16.6-9.5,24.8-14.3
	c5.6-3.2,9.7-0.9,9.7,5.6c0,21.5,0,43,0,64.6c0,20.9-8.5,37.8-24.5,50.9c-12.6,10.3-27.2,16-43.5,17.5c-20.2,1.9-39-2.4-55.8-13.9
	c-14.2-9.7-24-22.8-27.7-39.9c-1.2-5.7-1.4-11.6-1.5-17.4C86.4,199.8,86.6,191,86.6,182.2z M97.8,154.7c-0.1,0.8-0.1,1.3-0.1,1.8
	c0,19.1,0,38.3,0,57.4c0,5.6,1,11,3,16.2c5.9,15.3,17,25.9,31.8,32.5c20.2,9,40.6,9,60.8,0.3c12.1-5.2,21.8-13.5,28.6-25
	c5.3-9.1,6.9-19,6.9-29.3c0-17.1,0-34.2,0-51.3c0-0.8,0-1.5,0-2.6c-1.1,0.6-1.8,0.9-2.5,1.3c-6,3.4-12,6.7-17.8,10.3
	c-3.2,2-5.9,2-9.2,0.1c-9.4-5.6-19.7-8.5-30.5-9.2c-15-1-29.3,1.8-42.3,9.6c-2.8,1.7-5.2,1.5-7.9-0.1
	C111.7,162.7,104.9,158.9,97.8,154.7z"/>
<path class="st1" d="M117.5,215.7c0.7-3.9,1.8-7.2,4.6-9.7c3.1-2.7,7-2.7,10,0c4.9,4.4,5.3,13.6,0.7,18.4c-3.7,3.9-9.1,3.7-12.2-0.9
	C119.2,221.3,118.5,218.4,117.5,215.7z"/>
<path class="st1" d="M208.7,212c-1.1,2.7-1.7,5.5-3.2,7.8c-2.9,4.4-8.3,4.6-11.9,0.8c-4.2-4.4-4.2-12.7-0.1-17.1
	c4-4.2,9.3-3.9,12.3,1.1C207.1,206.7,207.7,209.3,208.7,212z"/>
<path class="st1" d="M163.7,225.9c-3.9-4.3-7.4-8.3-11.3-12.5c7.6,0,14.8,0,22.5,0C171.1,217.7,167.5,221.7,163.7,225.9z"/>
</svg>
